<mxfile host="Electron" modified="2023-04-10T14:09:06.726Z" agent="Mozilla/5.0 (Macintosh; Intel Mac OS X 10_15_7) AppleWebKit/537.36 (KHTML, like Gecko) draw.io/21.1.2 Chrome/106.0.5249.199 Electron/21.4.3 Safari/537.36" etag="pPF0CbWWQQldtP7pmr0I" version="21.1.2" type="device">
  <diagram name="Page-1" id="z-tie_zs8F83n3zij0be">
    <mxGraphModel dx="2074" dy="1214" grid="1" gridSize="10" guides="1" tooltips="1" connect="1" arrows="1" fold="1" page="1" pageScale="1" pageWidth="1169" pageHeight="827" math="0" shadow="0">
      <root>
        <mxCell id="0" />
        <mxCell id="1" parent="0" />
        <mxCell id="mqt8-4aocLQocp0UYeci-1" value="&lt;font style=&quot;font-size: 25px;&quot;&gt;&lt;b&gt;Self-Sovereign&lt;/b&gt;&lt;/font&gt;" style="rounded=1;whiteSpace=wrap;html=1;fillColor=#d5e8d4;strokeColor=#82b366;" vertex="1" parent="1">
          <mxGeometry x="180" y="160" width="220" height="60" as="geometry" />
        </mxCell>
        <mxCell id="mqt8-4aocLQocp0UYeci-2" value="&lt;font style=&quot;font-size: 25px;&quot;&gt;&lt;b&gt;User-Centered&lt;/b&gt;&lt;/font&gt;" style="rounded=1;whiteSpace=wrap;html=1;fillColor=#fff2cc;strokeColor=#d6b656;" vertex="1" parent="1">
          <mxGeometry x="180" y="280" width="220" height="60" as="geometry" />
        </mxCell>
        <mxCell id="mqt8-4aocLQocp0UYeci-3" value="&lt;font style=&quot;font-size: 25px;&quot;&gt;&lt;b&gt;Administrative&lt;/b&gt;&lt;/font&gt;" style="rounded=1;whiteSpace=wrap;html=1;fillColor=#ffe6cc;strokeColor=#d79b00;" vertex="1" parent="1">
          <mxGeometry x="180" y="400" width="220" height="60" as="geometry" />
        </mxCell>
        <mxCell id="mqt8-4aocLQocp0UYeci-4" value="" style="shape=flexArrow;endArrow=classic;html=1;rounded=0;width=48;endSize=15.33;endWidth=32;fillColor=#dae8fc;strokeColor=#6c8ebf;" edge="1" parent="1">
          <mxGeometry width="50" height="50" relative="1" as="geometry">
            <mxPoint x="460" y="450" as="sourcePoint" />
            <mxPoint x="460" y="170" as="targetPoint" />
          </mxGeometry>
        </mxCell>
        <mxCell id="mqt8-4aocLQocp0UYeci-5" value="Degree of Autonomity" style="edgeLabel;html=1;align=center;verticalAlign=middle;resizable=0;points=[];rotation=270;labelBackgroundColor=none;fontSize=20;fontStyle=1" vertex="1" connectable="0" parent="mqt8-4aocLQocp0UYeci-4">
          <mxGeometry relative="1" as="geometry">
            <mxPoint as="offset" />
          </mxGeometry>
        </mxCell>
        <mxCell id="mqt8-4aocLQocp0UYeci-6" value="&lt;font style=&quot;font-size: 20px;&quot;&gt;Assigned identifier, limited attributes, opaque sharing. &lt;br&gt;Operated for the purpose of an organization.&lt;/font&gt;" style="text;html=1;strokeColor=none;fillColor=none;align=left;verticalAlign=middle;whiteSpace=wrap;rounded=0;" vertex="1" parent="1">
          <mxGeometry x="520" y="400" width="640" height="60" as="geometry" />
        </mxCell>
        <mxCell id="mqt8-4aocLQocp0UYeci-7" value="&lt;font style=&quot;font-size: 20px;&quot;&gt;Assigned identifier, limited choice on relationships, attributes, and sharing. Here we find federated protocols like OAuth and OpenID Connect used as part of social login.&lt;/font&gt;" style="text;html=1;strokeColor=none;fillColor=none;align=left;verticalAlign=middle;whiteSpace=wrap;rounded=0;" vertex="1" parent="1">
          <mxGeometry x="520" y="280" width="640" height="60" as="geometry" />
        </mxCell>
        <mxCell id="mqt8-4aocLQocp0UYeci-8" value="&lt;font style=&quot;font-size: 20px;&quot;&gt;Self-certifying identifier, full choice on relationships, attributes, and sharing. A self-sovereign system defines what the entity (person or&amp;nbsp;&lt;/font&gt;&lt;span style=&quot;font-size: 20px; background-color: initial;&quot;&gt;organization) can control, along with rules of engagement for its relations with other&amp;nbsp;&lt;/span&gt;&lt;span style=&quot;font-size: 20px; background-color: initial;&quot;&gt;entities.&lt;/span&gt;&lt;span style=&quot;font-size: 20px; background-color: initial;&quot;&gt;&lt;br&gt;&lt;/span&gt;" style="text;html=1;strokeColor=none;fillColor=none;align=left;verticalAlign=middle;whiteSpace=wrap;rounded=0;" vertex="1" parent="1">
          <mxGeometry x="520" y="160" width="640" height="60" as="geometry" />
        </mxCell>
      </root>
    </mxGraphModel>
  </diagram>
</mxfile>
